{
  "accessors": [
    {
      "bufferView": 2,
      "componentType": 5126,
      "count": 65532,
      "max": [
        9.201425552368164,
        9.923969268798828,
        32.30302810668945
      ],
      "min": [
        -11.181095123291016,
        -7.386773586273193,
        0.06945419311523438
      ],
      "type": "VEC3"
    },
    {
      "bufferView": 2,
      "byteOffset": 786384,
      "componentType": 5126,
      "count": 65532,
      "max": [
        0.999997615814209,
        0.9999933838844299,
        0.9999322295188904
      ],
      "min": [
        -0.9999963641166687,
        -0.9999956488609314,
        -0.9999903440475464
      ],
      "type": "VEC3"
    },
    {
      "bufferView": 1,
      "componentType": 5126,
      "count": 65532,
      "max": [
        0.9994441866874695,
        0.9819334745407104
      ],
      "min": [
        0.00048828125,
        0.0005112482467666268
      ],
      "type": "VEC2"
    },
    {
      "bufferView": 0,
      "componentType": 5125,
      "count": 316008,
      "type": "SCALAR"
    },
    {
      "bufferView": 2,
      "byteOffset": 1572768,
      "componentType": 5126,
      "count": 65532,
      "max": [
        8.999568939208984,
        9.10540771484375,
        32.311492919921875
      ],
      "min": [
        -15.306593894958496,
        -7.335068225860596,
        0.5036582946777344
      ],
      "type": "VEC3"
    },
    {
      "bufferView": 2,
      "byteOffset": 2359152,
      "componentType": 5126,
      "count": 65532,
      "max": [
        0.9999929666519165,
        0.9999231100082397,
        0.9999623894691467
      ],
      "min": [
        -0.9996521472930908,
        -0.9999513626098633,
        -0.9994467496871948
      ],
      "type": "VEC3"
    },
    {
      "bufferView": 1,
      "byteOffset": 524256,
      "componentType": 5126,
      "count": 65532,
      "max": [
        0.9995110630989075,
        0.9584959745407104
      ],
      "min": [
        0.00048828125,
        0.0005258513847365975
      ],
      "type": "VEC2"
    },
    {
      "bufferView": 0,
      "byteOffset": 1264032,
      "componentType": 5125,
      "count": 282687,
      "type": "SCALAR"
    },
    {
      "bufferView": 2,
      "byteOffset": 3145536,
      "componentType": 5126,
      "count": 65532,
      "max": [
        9.16335391998291,
        9.172161102294922,
        32.311492919921875
      ],
      "min": [
        -15.361151695251465,
        -7.353837490081787,
        0.08187484741210938
      ],
      "type": "VEC3"
    },
    {
      "bufferView": 2,
      "byteOffset": 3931920,
      "componentType": 5126,
      "count": 65532,
      "max": [
        0.9998900294303894,
        0.9999815821647644,
        0.9999622106552124
      ],
      "min": [
        -0.9999294877052307,
        -0.9995547533035278,
        -0.9999297261238098
      ],
      "type": "VEC3"
    },
    {
      "bufferView": 1,
      "byteOffset": 1048512,
      "componentType": 5126,
      "count": 65532,
      "max": [
        0.9994736313819885,
        0.9814085364341736
      ],
      "min": [
        0.00048828125,
        0.0004913402954116464
      ],
      "type": "VEC2"
    },
    {
      "bufferView": 0,
      "byteOffset": 2394780,
      "componentType": 5125,
      "count": 211953,
      "type": "SCALAR"
    },
    {
      "bufferView": 2,
      "byteOffset": 4718304,
      "componentType": 5126,
      "count": 28971,
      "max": [
        9.007559776306152,
        9.895797729492188,
        16.039623260498047
      ],
      "min": [
        -1.2234680652618408,
        -7.28976583480835,
        0.5513496398925781
      ],
      "type": "VEC3"
    },
    {
      "bufferView": 2,
      "byteOffset": 5065956,
      "componentType": 5126,
      "count": 28971,
      "max": [
        0.9994029998779297,
        0.9994112849235535,
        0.8627877235412598
      ],
      "min": [
        -0.9705885648727417,
        -0.9994633197784424,
        -0.9996346235275269
      ],
      "type": "VEC3"
    },
    {
      "bufferView": 1,
      "byteOffset": 1572768,
      "componentType": 5126,
      "count": 28971,
      "max": [
        0.9994531869888306,
        0.9796864986419678
      ],
      "min": [
        0.00048828125,
        0.0005094601074233651
      ],
      "type": "VEC2"
    },
    {
      "bufferView": 0,
      "byteOffset": 3242592,
      "componentType": 5125,
      "count": 89196,
      "type": "SCALAR"
    }
  ],
  "asset": {
    "extras": {
      "author": "Aalto Archive (https://sketchfab.com/aaltoarchive)",
      "license": "CC-BY-NC-SA-4.0 (http://creativecommons.org/licenses/by-nc-sa/4.0/)",
      "source": "https://sketchfab.com/3d-models/1967-7-seal-rattle-57ff956f593942158afd6353266743f7",
      "title": "1967_7_Seal rattle"
    },
    "generator": "Sketchfab-12.66.0",
    "version": "2.0"
  },
  "bufferViews": [
    {
      "buffer": 0,
      "byteLength": 3599376,
      "name": "floatBufferViews",
      "target": 34963
    },
    {
      "buffer": 0,
      "byteLength": 1804536,
      "byteOffset": 3599376,
      "byteStride": 8,
      "name": "floatBufferViews",
      "target": 34962
    },
    {
      "buffer": 0,
      "byteLength": 5413608,
      "byteOffset": 5403912,
      "byteStride": 12,
      "name": "floatBufferViews",
      "target": 34962
    }
  ],
  "buffers": [
    {
      "byteLength": 10817520,
      "uri": "scene.bin"
    }
  ],
  "extensionsUsed": [
    "KHR_materials_unlit"
  ],
  "images": [
    {
      "uri": "textures/tex_u1_v1_baseColor.jpeg"
    }
  ],
  "materials": [
    {
      "doubleSided": true,
      "extensions": {
        "KHR_materials_unlit": {}
      },
      "name": "tex_u1_v1",
      "pbrMetallicRoughness": {
        "baseColorFactor": [
          0.6158075381986879,
          0.6158075381986879,
          0.6158075381986879,
          1.0
        ],
        "baseColorTexture": {
          "index": 0
        },
        "metallicFactor": 0.0
      }
    }
  ],
  "meshes": [
    {
      "name": "Object_0",
      "primitives": [
        {
          "attributes": {
            "NORMAL": 1,
            "POSITION": 0,
            "TEXCOORD_0": 2
          },
          "indices": 3,
          "material": 0,
          "mode": 4
        }
      ]
    },
    {
      "name": "Object_1",
      "primitives": [
        {
          "attributes": {
            "NORMAL": 5,
            "POSITION": 4,
            "TEXCOORD_0": 6
          },
          "indices": 7,
          "material": 0,
          "mode": 4
        }
      ]
    },
    {
      "name": "Object_2",
      "primitives": [
        {
          "attributes": {
            "NORMAL": 9,
            "POSITION": 8,
            "TEXCOORD_0": 10
          },
          "indices": 11,
          "material": 0,
          "mode": 4
        }
      ]
    },
    {
      "name": "Object_3",
      "primitives": [
        {
          "attributes": {
            "NORMAL": 13,
            "POSITION": 12,
            "TEXCOORD_0": 14
          },
          "indices": 15,
          "material": 0,
          "mode": 4
        }
      ]
    }
  ],
  "nodes": [
    {
      "children": [
        1
      ],
      "matrix": [
        1.0,
        0.0,
        0.0,
        0.0,
        0.0,
        2.220446049250313e-16,
        -1.0,
        0.0,
        0.0,
        1.0,
        2.220446049250313e-16,
        0.0,
        0.0,
        0.0,
        0.0,
        1.0
      ],
      "name": "Sketchfab_model"
    },
    {
      "children": [
        2,
        3,
        4,
        5
      ],
      "name": "model.obj.cleaner.materialmerger.gles"
    },
    {
      "mesh": 0,
      "name": "Object_2"
    },
    {
      "mesh": 1,
      "name": "Object_3"
    },
    {
      "mesh": 2,
      "name": "Object_4"
    },
    {
      "mesh": 3,
      "name": "Object_5"
    }
  ],
  "samplers": [
    {
      "magFilter": 9729,
      "minFilter": 9987,
      "wrapS": 10497,
      "wrapT": 10497
    }
  ],
  "scene": 0,
  "scenes": [
    {
      "name": "Sketchfab_Scene",
      "nodes": [
        0
      ]
    }
  ],
  "textures": [
    {
      "sampler": 0,
      "source": 0
    }
  ]
}
